{"title":"BBC Africa E05 Sahara 2013 1080p x264 AC3 - alrmothe","uid":8649269,"size":6162509639,"categoryP":"video","categoryS":"hd___movies","magnet":"?xt=urn:btih:012aeec3bf49348dfe12c9f703972f3004408653&amp;dn=BBC+Africa+E05+Sahara+2013+1080p+x264+AC3+-+alrmothe&amp;tr=udp%3A%2F%2Ftracker.openbittorrent.com%3A80&amp;tr=udp%3A%2F%2Fopen.demonii.com%3A1337&amp;tr=udp%3A%2F%2Ftracker.coppersurfer.tk%3A6969&amp;tr=udp%3A%2F%2Fexodus.desync.com%3A6969","seeders":3,"leechers":8,"uploader":".alrmothe","files":21,"time":1373061803,"description":"***************************************************************\n\nBBC Africa E05 Sahara 2013 1080p x264 AC3 - alrmothe\n\n***************************************************************\n\nTitle : BBC David Attenborough's Africa \nYEAR: 2013\nGENRE : Documentary    \nimdb URL :http://www.imdb.com/title/tt2571774/\nFormat: Matroska\nOverall bit rate:14 Mbps\nFormat version: Version 4 / Version 2\nFile size:  5.74 GiB\nDuration: 58mn 29s\n\n***************************************************************\n\nVideo\nFormat : AVC \nFormat/Info : Advanced Video Codec \nFormat profile : &lt;a class=&quot;__cf_email__&quot; href=&quot;/cdn-cgi/l/email-protection&quot; data-cfemail=&quot;f6be9f919eb6bac2d8c7&quot;&gt;[email&amp;#160;protected]&lt;/a&gt;&lt;script cf-hash='f9e31' type=&quot;text/javascript&quot;&gt;\n/* &lt;![CDATA[ */!function(){try{var t=&quot;currentScript&quot;in document?document.currentScript:function(){for(var t=document.getElementsByTagName(&quot;script&quot;),e=t.length;e--;)if(t[e].getAttribute(&quot;cf-hash&quot;))return t[e]}();if(t&amp;&amp;t.previousSibling){var e,r,n,i,c=t.previousSibling,a=c.getAttribute(&quot;data-cfemail&quot;);if(a){for(e=&quot;&quot;,r=parseInt(a.substr(0,2),16),n=2;a.length-n;n+=2)i=parseInt(a.substr(n,2),16)^r,e+=String.fromCharCode(i);e=document.createTextNode(e),c.parentNode.replaceChild(e,c)}}}catch(u){}}();/* ]]&gt; */&lt;/script&gt; \nFormat settings, CABAC : Yes \nFormat settings, ReFrames : 4 frames  \nCodec ID : V_MPEG4/ISO/AVC  \nBit rate :13.4 Mbps \nWidth : 1920 pixels \nHeight :1080 pixels \nDisplay aspect ratio : 16:9 \nFrame rate : 25 fps \nColor space : YUV \nChroma subsampling : 4:2:0 \nBit depth : 8 bits \nScan type : Progressive \nBits/(Pixel*Frame) : 0.258 \nStream size: 5.36 GiB \n\n\nAudio#1 \nFormat: AC3\nBit rate :640 Kbps\nChannel(s) : 6 channels\nChannel positions:Front: L C R, Side: L R, LFE\nSampling rate: 48.0 KHz\nBit depth: 16bits\nCompression mode: Lossy\nStream size: 268 GiB\nLanguage : English\n\n\nsub : Arabic,English\n\n***************************************************************\nScreenshots &lt;a href=&quot;\nhttp://img259.imageshack.us/img259/5126/nfz0.png&quot; rel=&quot;nofollow&quot; target=&quot;_NEW&quot;&gt;\nhttp://img259.imageshack.us/img259/5126/nfz0.png&lt;/a&gt; &lt;a href=&quot;\nhttp://img266.imageshack.us/img266/3331/v2y.png&quot; rel=&quot;nofollow&quot; target=&quot;_NEW&quot;&gt;\nhttp://img266.imageshack.us/img266/3331/v2y.png&lt;/a&gt; &lt;a href=&quot;\nhttp://img844.imageshack.us/img844/1521/p0n.png&quot; rel=&quot;nofollow&quot; target=&quot;_NEW&quot;&gt;\nhttp://img844.imageshack.us/img844/1521/p0n.png&lt;/a&gt; &lt;a href=&quot;\nhttp://img849.imageshack.us/img849/9982/yt6.png&quot; rel=&quot;nofollow&quot; target=&quot;_NEW&quot;&gt;\nhttp://img849.imageshack.us/img849/9982/yt6.png&lt;/a&gt; &lt;a href=&quot;\nhttp://img845.imageshack.us/img845/2195/ww5u.png&quot; rel=&quot;nofollow&quot; target=&quot;_NEW&quot;&gt;\nhttp://img845.imageshack.us/img845/2195/ww5u.png&lt;/a&gt;","torrent":{"xt":"urn:btih:012aeec3bf49348dfe12c9f703972f3004408653","amp;dn":"BBC+Africa+E05+Sahara+2013+1080p+x264+AC3+-+alrmothe","amp;tr":["udp%3A%2F%2Ftracker.openbittorrent.com%3A80","udp%3A%2F%2Fopen.demonii.com%3A1337","udp%3A%2F%2Ftracker.coppersurfer.tk%3A6969","udp%3A%2F%2Fexodus.desync.com%3A6969"],"infoHash":"012aeec3bf49348dfe12c9f703972f3004408653","infoHashBuffer":{"type":"Buffer","data":[1,42,238,195,191,73,52,141,254,18,201,247,3,151,47,48,4,64,134,83]},"announce":[],"urlList":[]}}